<svg width="90" height="90" viewBox="0 0 90 90" fill="none" xmlns="http://www.w3.org/2000/svg">
<g id="ion:card-sharp">
<path id="Vector" d="M5.625 73.125C5.625 73.8709 5.92132 74.5863 6.44876 75.1137C6.97621 75.6412 7.69158 75.9375 8.4375 75.9375H81.5625C82.3084 75.9375 83.0238 75.6412 83.5512 75.1137C84.0787 74.5863 84.375 73.8709 84.375 73.125V39.0234H5.625V73.125ZM17.2266 48.8672C17.2266 48.4942 17.3747 48.1365 17.6384 47.8728C17.9022 47.6091 18.2599 47.4609 18.6328 47.4609H34.8047C35.1776 47.4609 35.5353 47.6091 35.7991 47.8728C36.0628 48.1365 36.2109 48.4942 36.2109 48.8672V60.1172C36.2109 60.4901 36.0628 60.8478 35.7991 61.1116C35.5353 61.3753 35.1776 61.5234 34.8047 61.5234H18.6328C18.2599 61.5234 17.9022 61.3753 17.6384 61.1116C17.3747 60.8478 17.2266 60.4901 17.2266 60.1172V48.8672ZM81.5625 14.0625H8.4375C7.69158 14.0625 6.97621 14.3588 6.44876 14.8863C5.92132 15.4137 5.625 16.1291 5.625 16.875V28.4766H84.375V16.875C84.375 16.1291 84.0787 15.4137 83.5512 14.8863C83.0238 14.3588 82.3084 14.0625 81.5625 14.0625Z" fill="black"/>
</g>
</svg>
