<svg width="53" height="53" viewBox="0 0 53 53" fill="none" xmlns="http://www.w3.org/2000/svg">
<g id="teenyicons:loop-solid" clip-path="url(#clip0_36_263)">
<path id="Vector" fill-rule="evenodd" clip-rule="evenodd" d="M46.969 10.6L39.3829 3.01747L41.8845 0.515869L52.4845 11.1159C52.6491 11.28 52.7796 11.4749 52.8687 11.6896C52.9577 11.9042 53.0036 12.1343 53.0036 12.3667C53.0036 12.599 52.9577 12.8291 52.8687 13.0438C52.7796 13.2584 52.6491 13.4534 52.4845 13.6175L41.8845 24.2175L39.3829 21.7159L46.969 14.1333H12.3671C10.0243 14.1333 7.77754 15.064 6.12097 16.7206C4.4644 18.3771 3.53375 20.6239 3.53375 22.9667V28.2667H0.000412839V22.9667C0.000412839 19.6868 1.30333 16.5413 3.62253 14.2221C5.94173 11.9029 9.08724 10.6 12.3671 10.6H46.969ZM53.0004 24.7333V30.0333C53.0004 33.3132 51.6975 36.4587 49.3783 38.7779C47.0591 41.0971 43.9136 42.4 40.6337 42.4H6.03181L13.6179 49.9825L11.1163 52.4841L0.51628 41.8841C0.185081 41.5528 -0.000976562 41.1036 -0.000976562 40.6351C-0.000976563 40.1666 0.185081 39.7174 0.51628 39.3861L11.1163 28.7861L13.6179 31.2841L6.03181 38.8667H40.6337C42.9765 38.8667 45.2233 37.936 46.8799 36.2794C48.5364 34.6229 49.4671 32.3761 49.4671 30.0333V24.7333H53.0004Z" fill="black"/>
</g>
<defs>
<clipPath id="clip0_36_263">
<rect width="53" height="53" fill="white"/>
</clipPath>
</defs>
</svg>
