<svg width="70" height="70" viewBox="0 0 70 70" fill="none" xmlns="http://www.w3.org/2000/svg">
<g id="fontisto:world-o" clip-path="url(#clip0_36_261)">
<path id="Vector" d="M70 34.9998V34.9823C70 24.6253 65.4908 15.324 58.3304 8.92775L58.2954 8.89859C58.207 8.80325 58.1082 8.71814 58.0008 8.64484L57.995 8.64192C51.6355 3.05805 43.4572 -0.0137402 34.9942 0.00275161C26.1508 0.00275161 18.0775 3.28692 11.9233 8.70609L11.9613 8.674C11.8871 8.73027 11.8187 8.79377 11.7571 8.86359C8.05738 12.1396 5.09599 16.1672 3.06909 20.674C1.0422 25.1809 -0.00392842 30.0669 1.10853e-05 35.0086C1.10853e-05 45.3628 4.50334 54.664 11.6579 61.0632L11.6929 61.0923C11.7856 61.1974 11.8892 61.2923 12.0021 61.3753L12.0079 61.3782C18.3658 66.9538 26.5378 70.021 34.9942 70.0057C43.49 70.0187 51.6971 66.923 58.0679 61.3023L58.03 61.3344C61.7938 58.0621 64.8109 54.0195 66.877 49.4801C68.9432 44.9408 70.0102 40.0106 70.0059 35.0232V35.0028L70 34.9998ZM56.9858 57.7644C55.2521 56.362 53.3875 55.1294 51.4179 54.0836L51.2283 53.9903C53.0163 48.8365 54.0925 42.8953 54.1946 36.7148V36.6682H66.6225C66.2034 44.6639 62.7619 52.2017 56.9946 57.7557L56.9858 57.7644ZM36.6683 53.3748C40.4104 53.5761 43.9075 54.3986 47.1333 55.7373L46.9233 55.6615C44.3392 61.5532 40.7021 65.6015 36.6683 66.4911V53.3748ZM36.6683 50.0382V36.6682H50.8667C50.754 42.2048 49.794 47.6914 48.02 52.9373L48.1338 52.5553C44.5126 51.0669 40.6612 50.2163 36.75 50.0411L36.6713 50.0382H36.6683ZM36.6683 33.3315V19.9615C40.6851 19.7782 44.6395 18.8989 48.3554 17.3628L48.125 17.4473C49.7438 22.1694 50.7383 27.6119 50.8667 33.2703V33.3315H36.6683ZM36.6683 16.6248V3.51442C40.7021 4.404 44.3392 8.43484 46.9233 14.344C43.9075 15.5982 40.4104 16.4178 36.7529 16.6219L36.6683 16.6248ZM44.9925 4.95817C48.4294 6.10452 51.6437 7.83301 54.495 10.0682L54.4279 10.0157C53.1358 11.0307 51.6863 11.9873 50.1579 12.8186L49.9946 12.9003C48.7596 9.9857 47.0616 7.28996 44.9663 4.91734L44.9925 4.94942V4.95817ZM33.3258 3.52317V16.6248C29.7281 16.4413 26.1885 15.6422 22.8608 14.2623L23.0708 14.3382C25.6667 8.4465 29.2979 4.40108 33.3317 3.5115L33.3258 3.52317ZM20.0025 12.8915C18.4215 12.0409 16.915 11.0584 15.4992 9.95442L15.5692 10.0069C18.3375 7.83737 21.4513 6.14933 24.78 5.01359L25.0017 4.9465C22.9612 7.25485 21.2986 9.87133 20.0754 12.699L20.0025 12.8915ZM33.3317 19.9586V33.3286H19.1333C19.2617 27.609 20.2563 22.1665 21.9888 17.0623L21.875 17.4444C25.4948 18.9304 29.344 19.7799 33.2529 19.9557L33.3317 19.9586ZM33.3317 36.6653V50.0353C29.3149 50.2186 25.3605 51.0979 21.6446 52.634L21.875 52.5494C20.2563 47.8303 19.2617 42.3848 19.1333 36.7265V36.6653H33.3317ZM33.3317 53.3719V66.4823C29.2979 65.5928 25.6608 61.5619 23.0767 55.6528C26.0925 54.3986 29.5896 53.5819 33.2471 53.3778L33.3317 53.3719ZM25.0192 65.0386C21.5832 63.8956 18.369 62.1711 15.5167 59.9403L15.5867 59.9928C16.8788 58.9778 18.3283 58.0211 19.8567 57.1898L20.02 57.1082C21.2447 60.0239 22.9427 62.7173 25.0454 65.0794L25.0192 65.0503V65.0386ZM49.9975 57.1053C51.6892 58.024 53.1388 58.9778 54.5008 60.0423L54.4308 59.9898C51.6625 62.1594 48.5488 63.8474 45.22 64.9832L44.9983 65.0503C47.0388 62.743 48.7014 60.1275 49.9246 57.3007L49.9975 57.1111V57.1053ZM66.6225 33.3315H54.1946C54.1052 27.2968 53.0638 21.314 51.1088 15.604L51.2283 16.0065C53.2887 14.9217 55.2393 13.6402 57.0529 12.1798L56.9829 12.2323C62.7383 17.7653 66.181 25.2752 66.6167 33.2469L66.6196 33.3286L66.6225 33.3315ZM13.0142 12.2353C14.6942 13.6003 16.5813 14.8515 18.5821 15.9161L18.7717 16.0094C16.9838 21.1632 15.9075 27.1044 15.8054 33.2848V33.3315H3.37459C3.7937 25.3358 7.23524 17.7979 13.0025 12.244L13.0142 12.2353ZM3.37751 36.6682H15.8054C15.8948 42.7029 16.9363 48.6857 18.8913 54.3957L18.7717 53.9932C16.5813 55.1569 14.6971 56.4082 12.9471 57.8198L13.0171 57.7673C7.26174 52.2343 3.81899 44.7245 3.38334 36.7528L3.38043 36.6711L3.37751 36.6682Z" fill="black"/>
</g>
<defs>
<clipPath id="clip0_36_261">
<rect width="70" height="70" fill="white"/>
</clipPath>
</defs>
</svg>
