<svg width="35" height="41" viewBox="0 0 35 41" fill="none" xmlns="http://www.w3.org/2000/svg">
<path id="Vector" d="M28.3783 16.451C28.3783 20.0813 27.3619 23.4348 25.6496 26.1555L34.2859 36.1764C35.1386 37.165 35.1386 38.7706 34.2859 39.7592C33.4332 40.7478 32.0484 40.7478 31.1957 39.7592L22.5594 29.7383C20.2127 31.7314 17.3203 32.902 14.1891 32.902C6.35101 32.902 0 25.5386 0 16.451C0 7.3634 6.35101 0 14.1891 0C22.0273 0 28.3783 7.3634 28.3783 16.451ZM14.1891 27.8401C15.4792 27.8401 16.7565 27.5456 17.9483 26.9732C19.1402 26.4008 20.2231 25.5619 21.1352 24.5043C22.0474 23.4468 22.771 22.1912 23.2647 20.8094C23.7583 19.4276 24.0124 17.9466 24.0124 16.451C24.0124 14.9553 23.7583 13.4743 23.2647 12.0926C22.771 10.7108 22.0474 9.45523 21.1352 8.39765C20.2231 7.34007 19.1402 6.50115 17.9483 5.92879C16.7565 5.35643 15.4792 5.06184 14.1891 5.06184C12.8991 5.06184 11.6218 5.35643 10.43 5.92879C9.23814 6.50115 8.15523 7.34007 7.24306 8.39765C6.33088 9.45523 5.60731 10.7108 5.11364 12.0926C4.61998 13.4743 4.36589 14.9553 4.36589 16.451C4.36589 17.9466 4.61998 19.4276 5.11364 20.8094C5.60731 22.1912 6.33088 23.4468 7.24306 24.5043C8.15523 25.5619 9.23814 26.4008 10.43 26.9732C11.6218 27.5456 12.8991 27.8401 14.1891 27.8401Z" fill="black"/>
</svg>
