<svg width="52" height="50" viewBox="0 0 52 50" fill="none" xmlns="http://www.w3.org/2000/svg">
<g id="gg:profile">
<g id="Group">
<path id="Vector" fill-rule="evenodd" clip-rule="evenodd" d="M34.6666 18.75C34.6666 20.9601 33.7536 23.0797 32.1282 24.6425C30.5029 26.2053 28.2985 27.0833 26 27.0833C23.7014 27.0833 21.497 26.2053 19.8717 24.6425C18.2464 23.0797 17.3333 20.9601 17.3333 18.75C17.3333 16.5398 18.2464 14.4202 19.8717 12.8574C21.497 11.2946 23.7014 10.4166 26 10.4166C28.2985 10.4166 30.5029 11.2946 32.1282 12.8574C33.7536 14.4202 34.6666 16.5398 34.6666 18.75ZM30.3333 18.75C30.3333 19.855 29.8768 20.9148 29.0641 21.6962C28.2515 22.4776 27.1493 22.9166 26 22.9166C24.8507 22.9166 23.7485 22.4776 22.9359 21.6962C22.1232 20.9148 21.6666 19.855 21.6666 18.75C21.6666 17.6449 22.1232 16.5851 22.9359 15.8037C23.7485 15.0223 24.8507 14.5833 26 14.5833C27.1493 14.5833 28.2515 15.0223 29.0641 15.8037C29.8768 16.5851 30.3333 17.6449 30.3333 18.75Z" fill="black"/>
<path id="Vector_2" fill-rule="evenodd" clip-rule="evenodd" d="M26 2.08331C12.8375 2.08331 2.16666 12.3437 2.16666 25C2.16666 37.6562 12.8375 47.9166 26 47.9166C39.1625 47.9166 49.8333 37.6562 49.8333 25C49.8333 12.3437 39.1625 2.08331 26 2.08331ZM6.49999 25C6.49999 29.3541 8.04482 33.3625 10.634 36.5458C12.4523 34.2498 14.7981 32.389 17.4881 31.109C20.1781 29.8289 23.1394 29.1641 26.1408 29.1666C29.1034 29.1639 32.0275 29.8115 34.6903 31.0599C37.3532 32.3084 39.6846 34.1248 41.5068 36.3708C43.3841 34.0033 44.6481 31.24 45.1943 28.3095C45.7404 25.3791 45.5529 22.3657 44.6474 19.5187C43.7419 16.6717 42.1443 14.073 39.9869 11.9376C37.8295 9.80212 35.1742 8.19135 32.2408 7.23854C29.3074 6.28573 26.1803 6.01825 23.118 6.45826C20.0558 6.89826 17.1465 8.03309 14.631 9.76884C12.1154 11.5046 10.0659 13.7914 8.65199 16.44C7.23806 19.0886 6.50038 22.0228 6.49999 25ZM26 43.75C21.5235 43.7564 17.1822 42.2757 13.7107 39.5583C15.108 37.6348 16.9679 36.0644 19.1321 34.9806C21.2963 33.8968 23.7007 33.3316 26.1408 33.3333C28.5505 33.3315 30.9259 33.8824 33.0697 34.9404C35.2134 35.9985 37.0638 37.533 38.467 39.4166C34.9685 42.2223 30.5556 43.7561 26 43.75Z" fill="black"/>
</g>
</g>
</svg>
