<svg width="66" height="66" viewBox="0 0 66 66" fill="none" xmlns="http://www.w3.org/2000/svg">
<g id="octicon:comment-discussion-16">
<path id="Vector" d="M7.21875 4.125H42.2812C46.266 4.125 49.5 7.359 49.5 11.3438V34.0312C49.5 35.9458 48.7395 37.7819 47.3857 39.1357C46.0319 40.4895 44.1958 41.25 42.2812 41.25H29.1266L18.5089 51.8636C17.6676 52.7017 16.597 53.272 15.4321 53.5026C14.2672 53.7332 13.0601 53.6138 11.963 53.1594C10.8658 52.705 9.92776 51.936 9.267 50.9493C8.60625 49.9626 8.25238 48.8024 8.25 47.6149V41.25H7.21875C5.30422 41.25 3.4681 40.4895 2.11432 39.1357C0.760545 37.7819 0 35.9458 0 34.0312L0 11.3438C0 7.359 3.234 4.125 7.21875 4.125ZM6.1875 11.3438V34.0312C6.1875 34.6005 6.6495 35.0625 7.21875 35.0625H11.3438C12.1643 35.0625 12.9512 35.3884 13.5314 35.9686C14.1116 36.5488 14.4375 37.3357 14.4375 38.1562V47.19L25.6575 35.97C25.9444 35.6825 26.2851 35.4543 26.6603 35.2986C27.0354 35.1429 27.4376 35.0626 27.8438 35.0625H42.2812C42.5548 35.0625 42.8171 34.9539 43.0105 34.7605C43.2038 34.5671 43.3125 34.3048 43.3125 34.0312V11.3438C43.3125 11.0702 43.2038 10.8079 43.0105 10.6145C42.8171 10.4211 42.5548 10.3125 42.2812 10.3125H7.21875C6.94525 10.3125 6.68294 10.4211 6.48955 10.6145C6.29615 10.8079 6.1875 11.0702 6.1875 11.3438ZM59.8125 19.5938C59.8125 19.3202 59.7038 19.0579 59.5105 18.8645C59.3171 18.6711 59.0548 18.5625 58.7812 18.5625H56.7188C55.8982 18.5625 55.1113 18.2366 54.5311 17.6564C53.951 17.0762 53.625 16.2893 53.625 15.4688C53.625 14.6482 53.951 13.8613 54.5311 13.2811C55.1113 12.7009 55.8982 12.375 56.7188 12.375H58.7812C62.766 12.375 66 15.609 66 19.5938V42.2812C66 44.1958 65.2395 46.0319 63.8857 47.3857C62.5319 48.7395 60.6958 49.5 58.7812 49.5H57.75V55.8649C57.7476 57.0524 57.3938 58.2126 56.733 59.1993C56.0722 60.186 55.1342 60.955 54.037 61.4094C52.9399 61.8638 51.7328 61.9832 50.5679 61.7526C49.403 61.522 48.3324 60.9517 47.4911 60.1136L38.0325 50.655C37.6253 50.2769 37.3276 49.7959 37.1707 49.2627C37.0139 48.7296 37.0038 48.164 37.1415 47.6256C37.2792 47.0872 37.5595 46.5959 37.953 46.2034C38.3464 45.811 38.8385 45.5319 39.3772 45.3956C39.9151 45.2578 40.4801 45.2674 41.0129 45.4235C41.5457 45.5795 42.0266 45.8763 42.405 46.2825L51.5625 55.44V46.4062C51.5625 45.5857 51.8885 44.7988 52.4686 44.2186C53.0488 43.6385 53.8357 43.3125 54.6562 43.3125H58.7812C59.0548 43.3125 59.3171 43.2038 59.5105 43.0105C59.7038 42.8171 59.8125 42.5548 59.8125 42.2812V19.5938Z" fill="black"/>
</g>
</svg>
